<?xml version="1.0" encoding="UTF-8"?>
<svg width="76px" height="76px" viewBox="0 0 76 76" version="1.1" xmlns="http://www.w3.org/2000/svg" xmlns:xlink="http://www.w3.org/1999/xlink">
    <!-- Generator: Sketch 58 (84663) - https://sketch.com -->
    <title>icons8-champagne-bottle</title>
    <desc>Created with Sketch.</desc>
    <g id="Page-1" stroke="none" stroke-width="1" fill="none" fill-rule="evenodd">
        <g id="icons8-champagne-bottle" fill="#FFFFFF" fill-rule="nonzero">
            <path d="M67.447266,0.005859 C65.588669,0.005859 63.73093,0.711054 62.318359,2.123047 L61.003906,3.4375 C60.237916,4.203491 60.040287,5.241855 60.158203,6.244141 L55.431641,10.970703 C48.058722,18.343622 41.820319,20.622879 35.703125,22.662109 C29.585931,24.70134 23.53487,26.49926 17.240234,32.794922 L1.8125,48.220703 C-0.597412,50.630615 -0.59713,54.567698 1.8125,56.978516 L10.416016,65.582031 L19.021484,74.185547 C21.431513,76.595575 25.367315,76.595575 27.777344,74.185547 L43.205078,58.759766 C49.500223,52.464621 51.294892,46.411951 53.333984,40.294922 C55.373077,34.177893 57.655381,27.941292 65.029297,20.568359 L69.755859,15.841797 C70.757265,15.959555 71.794504,15.764087 72.560547,14.998047 L73.876953,13.683594 C76.69986,10.858374 76.700095,6.248126 73.876953,3.423828 L72.576172,2.123047 C71.164062,0.710937 69.305863,0.005859 67.447266,0.005859 Z M67.447266,1.994141 C68.789919,1.994141 70.132219,2.509172 71.162109,3.539062 L72.462891,4.837891 C74.521749,6.897593 74.521984,10.208751 72.462891,12.269531 L71.146484,13.582031 C70.743042,13.985474 70.171786,14.087378 69.667969,13.908203 C69.6428998,13.8993817 69.617489,13.8915632 69.591797,13.884766 L67.853516,12.146484 C67.7593086,12.0491155 67.6296241,11.994141 67.494141,11.994141 C67.2904184,11.9941821 67.1070876,12.1178076 67.0306874,12.3066617 C66.9542871,12.4955159 67.0000934,12.7118379 67.146484,12.853516 L68.53125,14.238281 L63.615234,19.154297 C59.28071,23.488244 56.63412,27.521179 54.753906,31.332031 L49.816406,30.097656 C49.57929,29.175077 49.109124,28.312249 48.398438,27.601562 C47.687282,26.890408 46.825571,26.420168 45.902344,26.183594 L44.666016,21.248047 C48.477544,19.368156 52.510861,16.719608 56.845703,12.384766 L61.761719,7.46875 L65.146484,10.853516 C65.2718956,10.9841217 65.4581137,11.0367278 65.6333256,10.9910474 C65.8085376,10.945367 65.945367,10.8085376 65.9910474,10.6333256 C66.0367278,10.4581137 65.9841217,10.2718956 65.853516,10.146484 L62.113281,6.40625 C62.1070784,6.38124283 62.0999117,6.35648469 62.091797,6.332031 C61.912435,5.827095 62.013837,5.255696 62.417969,4.851562 L63.732422,3.539062 C64.762851,2.509056 66.104613,1.994141 67.447266,1.994141 Z M43.751953,21.703125 L44.830078,26.015625 C44.625232,26.002706 44.419277,25.999594 44.212891,26.007812 C42.677675,26.068953 41.123006,26.713471 39.917969,27.917969 C39.690266,28.145671 39.488369,28.388537 39.300781,28.638672 L38.128906,23.947266 C39.950867,23.31358 41.821043,22.602372 43.751953,21.703125 Z M37.177734,24.273438 L38.574219,29.857422 C37.570046,32.067703 37.880286,34.675208 39.601562,36.396484 C41.322163,38.117085 43.928252,38.428503 46.138672,37.425781 L51.724609,38.822266 C51.629934,39.101945 51.529961,39.386691 51.4375,39.664062 C49.384343,45.823284 47.769918,51.364848 41.789062,57.345703 L26.363281,72.771484 C24.71731,74.417456 22.081519,74.417456 20.435547,72.771484 L11.832031,64.167969 L3.226562,55.564453 C1.580193,53.917271 1.580475,51.280854 3.226562,49.634766 L18.654297,34.208984 C24.634661,28.227646 30.176631,26.613816 36.335938,24.560547 C36.613313,24.468081 36.898052,24.368114 37.177734,24.273438 Z M44.234375,27.001953 C45.511909,26.948593 46.765534,27.382721 47.691406,28.308594 C49.543151,30.160338 49.431883,33.316164 47.375,35.373047 C45.317074,37.430052 42.160338,37.541198 40.308594,35.689453 C38.456849,33.837709 38.568117,30.681883 40.625,28.625 C41.653963,27.596498 42.956841,27.055315 44.234375,27.001953 Z M49.984375,31.169922 L54.296875,32.25 C53.397792,34.180366 52.684327,36.049636 52.050781,37.871094 L47.357422,36.699219 C47.608884,36.510966 47.853196,36.308811 48.082031,36.080078 C49.448529,34.713581 50.093684,32.898561 49.984375,31.169922 Z M21.169922,37.9979883 C21.0400352,38.000118 20.9160521,38.0526531 20.824219,38.144531 L8.146484,50.824219 C7.95129997,51.0194839 7.95129997,51.3359851 8.146484,51.53125 L24.46875,67.853516 C24.6640149,68.0487 24.9805161,68.0487 25.175781,67.853516 L37.853516,55.175781 C38.0487,54.9805161 38.0487,54.6640149 37.853516,54.46875 L21.53125,38.144531 C21.4355883,38.0488253 21.3052233,37.9959747 21.169922,37.9979883 L21.169922,37.9979883 Z M21.177734,39.205078 L36.792969,54.822266 L24.822266,66.792969 L9.207031,51.177734 L21.177734,39.205078 Z M21.179688,42.9999413 C21.0498009,43.0020707 20.9258173,43.0546058 20.833984,43.146484 L13.146484,50.833984 C12.9512993,51.029249 12.9512993,51.345751 13.146484,51.541016 L24.458984,62.853516 C24.654249,63.0487007 24.970751,63.0487007 25.166016,62.853516 L29.853516,58.166016 C29.9841217,58.0406044 30.0367278,57.8543863 29.9910474,57.6791744 C29.945367,57.5039624 29.8085376,57.367133 29.6333256,57.3214526 C29.4581137,57.2757722 29.2718956,57.3283783 29.146484,57.458984 L24.8125,61.792969 L14.207031,51.1875 L21.1875,44.207031 L23.833984,46.853516 C23.9593956,46.9841217 24.1456137,47.0367278 24.3208256,46.9910474 C24.4960376,46.945367 24.632867,46.8085376 24.6785474,46.6333256 C24.7242278,46.4581137 24.6716217,46.2718956 24.541016,46.146484 L21.541016,43.146484 C21.4453543,43.0507783 21.3149893,42.9979277 21.179688,42.9999413 L21.179688,42.9999413 Z M26.181641,47.994141 C25.9779184,47.9941821 25.7945876,48.1178076 25.7181874,48.3066617 C25.6417871,48.4955159 25.6875934,48.7118379 25.833984,48.853516 L26.833984,49.853516 C26.9593956,49.9841217 27.1456137,50.0367278 27.3208256,49.9910474 C27.4960376,49.945367 27.632867,49.8085376 27.6785474,49.6333256 C27.7242278,49.4581137 27.6716217,49.2718956 27.541016,49.146484 L26.541016,48.146484 C26.4468086,48.0491155 26.3171241,47.994141 26.181641,47.994141 L26.181641,47.994141 Z M28.994141,50.8085904 C28.7912939,50.8094471 28.6090596,50.9327594 28.5328381,51.1207434 C28.4566167,51.3087274 28.5015116,51.5241333 28.646484,51.666016 L29.146484,52.166016 C29.2718956,52.2966217 29.4581137,52.3492278 29.6333256,52.3035474 C29.8085376,52.257867 29.945367,52.1210376 29.9910474,51.9458256 C30.0367278,51.7706137 29.9841217,51.5843956 29.853516,51.458984 L29.353516,50.958984 C29.2589802,50.8623336 29.1293374,50.8080811 28.994141,50.8085904 Z" id="Shape"></path>
        </g>
    </g>
</svg>