<?xml version="1.0" encoding="UTF-8"?>
<svg width="82px" height="60px" viewBox="0 0 82 60" version="1.1" xmlns="http://www.w3.org/2000/svg" xmlns:xlink="http://www.w3.org/1999/xlink">
    <!-- Generator: Sketch 58 (84663) - https://sketch.com -->
    <title>icons8-ticket</title>
    <desc>Created with Sketch.</desc>
    <g id="Page-1" stroke="none" stroke-width="1" fill="none" fill-rule="evenodd">
        <g id="icons8-ticket" fill="#FFFFFF" fill-rule="nonzero">
            <path d="M68.882812,0.021484 C68.753281,0.011266 68.619531,0.026563 68.488281,0.070312 L55.246094,4.466797 C54.744094,4.633797 54.459703,5.161828 54.595703,5.673828 C54.801703,6.444828 54.373094,7.243188 53.621094,7.492188 C52.871094,7.740188 52.051906,7.357187 51.753906,6.617188 C51.557906,6.127188 51.015719,5.873062 50.511719,6.039062 L6.449219,20.669922 C6.359219,20.699922 6.282031,20.749781 6.207031,20.800781 L1.445312,21.484375 C1.183312,21.522375 0.9461094,21.663 0.7871094,21.875 C0.6291094,22.087 0.5616094,22.354188 0.5996094,22.617188 L2.533203,36.091797 C2.612203,36.634797 3.106203,37.014453 3.658203,36.939453 C5.735203,36.656453 7.67075,38.115453 7.96875,40.189453 C8.26775,42.263453 6.822047,44.207484 4.748047,44.521484 C4.205047,44.604484 3.82825,45.108344 3.90625,45.652344 L5.841797,59.126953 C5.879797,59.389953 6.020422,59.625203 6.232422,59.783203 C6.406422,59.913203 6.617031,59.984375 6.832031,59.984375 C6.879031,59.984375 6.928562,59.981609 6.976562,59.974609 L61.804688,52.101562 C62.078688,52.061562 62.326375,51.909641 62.484375,51.681641 C62.642375,51.453641 62.699625,51.171391 62.640625,50.900391 L62.613281,50.808594 C62.555281,50.409594 62.657438,50.012453 62.898438,49.689453 C63.140438,49.366453 63.493578,49.156609 63.892578,49.099609 C64.288578,49.041609 64.689719,49.142766 65.011719,49.384766 C65.334719,49.626766 65.545656,49.980797 65.597656,50.341797 C65.597656,50.362797 65.599563,50.450656 65.601562,50.472656 C65.621562,50.749656 65.754703,51.006641 65.970703,51.181641 C66.186703,51.356641 66.460188,51.432578 66.742188,51.392578 L80.554688,49.408203 C80.816688,49.370203 81.053891,49.231531 81.212891,49.019531 C81.370891,48.807531 81.438391,48.540344 81.400391,48.277344 L79.462891,34.779297 C79.386891,34.253297 78.917766,33.878781 78.384766,33.925781 C76.362766,34.092781 74.543813,32.673922 74.257812,30.669922 C73.969813,28.666922 75.306734,26.785719 77.302734,26.386719 C77.823734,26.282719 78.172656,25.789672 78.097656,25.263672 L76.158203,11.765625 C76.120203,11.502625 75.979578,11.265422 75.767578,11.107422 C75.555578,10.948422 75.294391,10.882922 75.025391,10.919922 L73.232422,11.177734 L69.753906,0.703125 C69.622656,0.309375 69.271406,0.052141 68.882812,0.021484 Z M68.171875,2.283203 L71.220703,11.466797 L61.212891,12.902344 C60.689891,12.977344 60.316375,13.447609 60.359375,13.974609 C60.425375,14.768609 59.862125,15.48075 59.078125,15.59375 C58.298125,15.70975 57.558484,15.182391 57.396484,14.400391 C57.290484,13.882391 56.812437,13.539328 56.273438,13.611328 L17.121094,19.234375 L50.373047,8.193359 C51.262047,9.351359 52.814906,9.867625 54.253906,9.390625 C55.696906,8.911625 56.629438,7.569375 56.648438,6.109375 L68.171875,2.283203 Z M74.318359,13.039062 L75.990234,24.685547 C73.471234,25.632547 71.881438,28.218125 72.273438,30.953125 C72.666438,33.688125 74.920516,35.723828 77.603516,35.923828 L79.275391,47.568359 L67.363281,49.279297 C67.127281,48.688297 66.732937,48.17225 66.210938,47.78125 C65.459937,47.21925 64.533422,46.984187 63.607422,47.117188 C62.678422,47.250187 61.857922,47.736328 61.294922,48.486328 C60.902922,49.008328 60.671375,49.615047 60.609375,50.248047 L7.677734,57.849609 L6.015625,46.263672 C8.638625,45.389672 10.352266,42.725344 9.947266,39.902344 C9.541266,37.079344 7.147766,35.00725 4.384766,34.90625 L2.720703,23.320312 L55.755859,15.705078 C56.424859,17.002078 57.865328,17.787313 59.361328,17.570312 C60.866328,17.354312 62.023781,16.197625 62.300781,14.765625 L74.318359,13.039062 Z M59.390625,18.787109 C59.117625,18.826109 58.925844,19.079516 58.964844,19.353516 L59.107422,20.34375 C59.143422,20.59375 59.357563,20.7714842 59.601562,20.7714842 C59.624562,20.7714842 59.647875,20.771578 59.671875,20.767578 C59.944875,20.728578 60.136656,20.475172 60.097656,20.201172 L59.955078,19.210938 C59.915078,18.937937 59.655625,18.749109 59.390625,18.787109 Z M50.511719,20.720703 L49.292969,20.894531 C49.019969,20.934531 48.828187,21.187937 48.867188,21.460938 C48.903188,21.709938 49.117328,21.890625 49.361328,21.890625 C49.385328,21.890625 49.409594,21.888766 49.433594,21.884766 L50.652344,21.710938 C50.925344,21.670938 51.115172,21.417531 51.076172,21.144531 C51.036172,20.869531 50.778719,20.680703 50.511719,20.720703 Z M47.767578,21.117188 C47.672453,21.137188 47.584531,21.183906 47.519531,21.253906 C47.419531,21.343906 47.371094,21.473516 47.371094,21.603516 C47.371094,21.733516 47.420531,21.863125 47.519531,21.953125 C47.609531,22.053125 47.741094,22.103516 47.871094,22.103516 C47.931094,22.103516 48.001547,22.094453 48.060547,22.064453 C48.121547,22.044453 48.170703,22.003125 48.220703,21.953125 C48.310703,21.863125 48.369141,21.733516 48.369141,21.603516 C48.369141,21.473516 48.309703,21.343906 48.220703,21.253906 C48.180703,21.203906 48.120547,21.164531 48.060547,21.144531 C47.966047,21.104531 47.862703,21.097187 47.767578,21.117188 Z M45.759766,21.402344 L11.306641,26.349609 C11.175641,26.368609 11.056563,26.438922 10.976562,26.544922 C10.897562,26.650922 10.864812,26.785016 10.882812,26.916016 L13.296875,43.724609 C13.332875,43.973609 13.545063,44.154297 13.789062,44.154297 C13.813063,44.153297 13.837328,44.152437 13.861328,44.148438 C14.134328,44.108437 14.324156,43.855031 14.285156,43.582031 L11.943359,27.267578 L45.900391,22.392578 C46.173391,22.352578 46.363219,22.099172 46.324219,21.826172 C46.284219,21.552172 46.025766,21.362344 45.759766,21.402344 Z M59.988281,22.972656 C59.715281,23.012656 59.525453,23.266062 59.564453,23.539062 L59.871094,25.669922 C59.907094,25.919922 60.121234,26.0976562 60.365234,26.0976562 C60.389234,26.0976562 60.4135,26.09775 60.4375,26.09375 C60.7105,26.05375 60.900328,25.800344 60.861328,25.527344 L60.554688,23.396484 C60.514687,23.121484 60.251281,22.930656 59.988281,22.972656 Z M53.869141,24.220703 C53.596141,24.260703 53.406312,24.514109 53.445312,24.787109 L56.431641,45.578125 L15.417969,51.46875 L15.09375,49.21875 C15.05375,48.94475 14.790344,48.755922 14.527344,48.794922 C14.254344,48.834922 14.064516,49.086375 14.103516,49.359375 L14.498047,52.105469 C14.534047,52.354469 14.748188,52.5332032 14.992188,52.5332032 C15.016188,52.5332032 15.040453,52.5332032 15.064453,52.529297 L57.068359,46.498047 C57.199359,46.479047 57.318438,46.408734 57.398438,46.302734 C57.477437,46.196734 57.510188,46.062641 57.492188,45.931641 L54.435547,24.644531 C54.395547,24.370531 54.134141,24.181703 53.869141,24.220703 Z M60.753906,28.298828 C60.480906,28.338828 60.291078,28.592234 60.330078,28.865234 L60.636719,30.994141 C60.672719,31.244141 60.886859,31.4238282 61.130859,31.4238282 C61.154859,31.4238282 61.176172,31.423922 61.201172,31.419922 C61.474172,31.379922 61.665953,31.126516 61.626953,30.853516 L61.320312,28.722656 C61.280312,28.447656 61.020906,28.258828 60.753906,28.298828 Z M61.517578,33.625 C61.244578,33.665 61.05475,33.918406 61.09375,34.191406 L61.400391,36.320312 C61.436391,36.570312 61.650531,36.75 61.894531,36.75 C61.919531,36.75 61.942797,36.748141 61.966797,36.744141 C62.239797,36.704141 62.429625,36.452687 62.390625,36.179688 L62.083984,34.048828 C62.043984,33.774828 61.782578,33.587 61.517578,33.625 Z M62.283203,38.951172 C62.010203,38.991172 61.820375,39.244578 61.859375,39.517578 L62.164062,41.646484 C62.200063,41.896484 62.414203,42.076172 62.658203,42.076172 C62.682203,42.076172 62.706469,42.074312 62.730469,42.070312 C63.003469,42.030313 63.193297,41.778859 63.154297,41.505859 L62.849609,39.375 C62.809609,39.1 62.551203,38.910172 62.283203,38.951172 Z M63.048828,44.277344 C62.775828,44.317344 62.584047,44.57075 62.623047,44.84375 L62.767578,45.832031 C62.803578,46.081031 63.017719,46.2617192 63.261719,46.2617192 C63.285719,46.2617192 63.308031,46.261812 63.332031,46.257812 C63.605031,46.217812 63.796812,45.964406 63.757812,45.691406 L63.613281,44.701172 C63.573281,44.427172 63.314828,44.238344 63.048828,44.277344 Z M14.103516,45.828125 C13.830516,45.867125 13.640687,46.120531 13.679688,46.394531 L13.8125,47.322266 C13.8485,47.571266 14.062641,47.751953 14.306641,47.751953 C14.330641,47.750953 14.353906,47.748141 14.378906,47.744141 C14.651906,47.705141 14.841734,47.453688 14.802734,47.179688 L14.669922,46.251953 C14.629922,45.977953 14.368516,45.784125 14.103516,45.828125 Z" id="Shape"></path>
        </g>
    </g>
</svg>