<?xml version="1.0" encoding="UTF-8"?>
<svg width="97px" height="98px" viewBox="0 0 97 98" version="1.1" xmlns="http://www.w3.org/2000/svg" xmlns:xlink="http://www.w3.org/1999/xlink">
    <!-- Generator: Sketch 58 (84663) - https://sketch.com -->
    <title>icons8-globe (2)</title>
    <desc>Created with Sketch.</desc>
    <g id="Page-1" stroke="none" stroke-width="1" fill="none" fill-rule="evenodd">
        <g id="icons8-globe-(2)" fill="#FFFFFF" fill-rule="nonzero">
            <path d="M47.390624,0.730468 C41.915286,0.852756 36.441532,1.920626 31.175782,3.9375 C19.137782,8.5475 9.617188,17.567844 4.367188,29.339844 C-6.472812,53.639844 4.477344,82.226406 28.777344,93.066406 C33.835344,95.322406 39.074688,96.622406 44.304688,97.066406 L55.5,97 C71.192,94.592 85.573812,84.204156 92.507812,68.660156 C103.347812,44.360156 92.399656,15.769688 68.097656,4.929688 C61.475906,1.976562 54.430348,0.573242 47.390624,0.730468 Z M48.722656,4.726562 C49.082656,4.728562 49.442688,4.747812 49.804688,4.757812 C57.592688,10.707812 63.626906,17.97675 67.628906,25.96875 C62.416906,28.57875 56.702312,30.136468 50.820312,30.480468 L50.808594,23.847656 C50.808594,23.295656 50.360594,22.851562 49.808594,22.851562 C49.256594,22.851562 48.976562,23.319094 48.976562,23.871094 L48.988282,30.5625 C48.848282,30.5645 48.54425,30.558594 48.40625,30.558594 L48.328124,30.558594 C42.204126,30.558594 36.207032,29.241344 30.707032,26.777344 C34.639032,18.473344 40.750656,10.904562 48.722656,4.726562 Z M45.378906,4.863282 C38.184906,10.901282 32.608438,18.088062 28.898438,25.914062 C24.660438,23.776062 20.766718,20.932562 17.386718,17.476562 C21.678718,13.248562 26.813374,9.891876 32.609376,7.671876 C36.765376,6.079876 41.060906,5.167282 45.378906,4.863282 Z M53.300782,4.996094 C57.790782,5.498094 62.22475,6.690032 66.46875,8.582032 C71.40075,10.784032 75.728906,13.785282 79.378906,17.363282 C76.414906,20.415282 73.048438,22.98925 69.398438,25.03125 C65.662438,17.58925 60.226782,10.760094 53.300782,4.996094 Z M50.023438,9.011718 C49.413438,8.985718 49.017718,9.449906 49.011718,10.003906 L49,11.167968 C48.994,11.719968 49.434282,12.173688 49.988282,12.179688 L50,12.179688 C50.548,12.179688 50.994,11.741406 51,11.191406 L51.011718,10.023438 C51.017718,9.471438 50.577438,9.017718 50.023438,9.011718 Z M50.03125,13.550782 C49.48525,13.550782 49.03725,13.989062 49.03125,14.539062 L48.980468,19.210938 C48.974468,19.762938 49.41675,20.21275 49.96875,20.21875 L49.980468,20.21875 C50.526468,20.21875 50.833844,19.76675 50.839844,19.21875 L50.890624,14.550782 C50.896626,13.998782 50.596968,13.556782 50.042968,13.550782 L50.03125,13.550782 Z M80.78125,18.792968 C92.52725,31.406968 96.307468,50.32525 88.855468,67.03125 C86.823468,71.58725 84.102812,75.619938 80.882812,79.085938 C77.788812,75.931938 74.282376,73.270156 70.484376,71.160156 C73.498374,64.434156 75.126468,57.263124 75.230468,49.953124 L82.09375,49.941406 C82.64575,49.941406 83.091844,49.4895 83.089844,48.9375 C83.089844,48.3855 82.673094,48.070312 82.121094,48.070312 L75.15625,48.070312 C74.97825,40.780312 73.355156,33.512218 70.285156,26.824218 C74.123156,24.688218 77.66525,21.994968 80.78125,18.792968 Z M16.003906,18.925782 C19.547906,22.537782 23.632218,25.504374 28.074218,27.734376 C25.286218,34.196376 23.762624,41.058876 23.640624,48.046876 L4.191406,48.082032 C4.301406,42.342032 5.537532,36.53275 8.019532,30.96875 C10.027532,26.46675 12.749906,22.439782 16.003906,18.925782 Z M68.511718,27.765624 C71.433718,34.167626 73.027124,41.157188 73.203124,48.117188 L50.828124,48.164062 L50.824218,32.488282 C57.014218,32.142282 63.029718,30.507626 68.511718,27.765624 Z M29.882812,28.601562 C35.638812,31.179562 41.918126,32.558594 48.328124,32.558594 L48.40625,32.558594 C48.54625,32.558594 48.846376,32.548876 48.984376,32.546876 L49.015624,48 L25.640624,48.042968 C25.762624,41.358968 27.220812,34.793562 29.882812,28.601562 Z M86.125,48.003906 C85.563,47.913906 85.119282,48.436282 85.113282,48.988282 C85.107282,49.540282 85.553468,49.816218 86.105468,49.824218 L88.910156,49.859376 L88.921876,49.859376 C89.467874,49.859376 89.908062,49.594874 89.914062,49.046876 C89.920062,48.494874 89.481688,48.043156 88.929688,48.035156 L86.125,48.003906 Z M4.335938,49.8125 L23.628906,49.882812 C23.776906,56.870812 25.340344,63.883938 28.152344,70.335938 C23.710344,72.587938 19.631656,75.576938 16.097656,79.210938 C8.715656,71.286938 4.615938,60.6045 4.335938,49.8125 Z M25.648438,49.90625 L49,49.90625 L49.15625,65.457032 C49.04425,65.457032 48.658874,65.441406 48.546876,65.441406 L48.464844,65.441406 C42.026844,65.453406 35.727032,66.85875 29.957032,69.46875 C27.273032,63.28475 25.796438,56.59025 25.648438,49.90625 Z M73.230468,49.957032 C73.126468,56.935032 71.574938,63.78475 68.710938,70.21875 C63.184938,67.46075 57.118812,65.829906 50.882812,65.503906 L50.855468,49.996094 L73.230468,49.957032 Z M48.976562,67.4294888 L49.023438,93.214844 C48.993438,93.214844 48.87375,93.238282 48.84375,93.238282 C40.86975,87.094282 34.743156,79.565062 30.785156,71.289062 C36.299156,68.795062 42.31875,67.451406 48.46875,67.441406 L48.546876,67.441406 C48.660876,67.441406 48.862562,67.427688 48.976562,67.4294888 Z M50.886718,67.507812 C56.822718,67.833812 62.591562,69.395344 67.851562,72.027344 C64.045562,79.801344 58.315594,86.900782 50.933594,92.800782 L50.886718,67.507812 Z M28.980468,72.15625 C32.720468,79.97625 38.324876,87.146156 45.546876,93.160156 C40.452876,92.832156 35.33425,91.615968 30.40625,89.417968 C25.47425,87.215968 21.142188,84.216624 17.492188,80.640624 C20.860188,77.170626 24.748468,74.31025 28.980468,72.15625 Z M69.617188,72.964844 C73.221188,74.980844 76.546376,77.517532 79.484376,80.519532 C72.538376,87.345532 63.534374,91.666624 53.984376,92.890624 C60.722376,87.126624 65.999188,80.336844 69.617188,72.964844 Z" id="Shape"></path>
        </g>
    </g>
</svg>